<svg width="32" height="32" viewBox="0 0 32 32" fill="none" xmlns="http://www.w3.org/2000/svg">
  <defs>
    <linearGradient id="grad1" x1="0%" y1="0%" x2="100%" y2="100%">
      <stop offset="0%" style="stop-color:#6366f1;stop-opacity:1" />
      <stop offset="100%" style="stop-color:#8b5cf6;stop-opacity:1" />
    </linearGradient>
  </defs>
  
  <!-- Background circle -->
  <circle cx="16" cy="16" r="15" fill="url(#grad1)" stroke="#ffffff" stroke-width="2"/>
  
  <!-- AI Brain/Neural Network -->
  <g fill="#ffffff">
    <!-- Central nodes -->
    <circle cx="16" cy="12" r="1.5"/>
    <circle cx="16" cy="20" r="1.5"/>
    
    <!-- Side nodes -->
    <circle cx="12" cy="14" r="1"/>
    <circle cx="20" cy="14" r="1"/>
    <circle cx="12" cy="18" r="1"/>
    <circle cx="20" cy="18" r="1"/>
    
    <!-- Top and bottom nodes -->
    <circle cx="16" cy="8" r="0.8"/>
    <circle cx="16" cy="24" r="0.8"/>
    
    <!-- Connection lines -->
    <path d="M16 10.5 L16 13.5" stroke="#ffffff" stroke-width="1" stroke-linecap="round"/>
    <path d="M16 18.5 L16 21.5" stroke="#ffffff" stroke-width="1" stroke-linecap="round"/>
    <path d="M13 14 L15 12" stroke="#ffffff" stroke-width="0.8" stroke-linecap="round"/>
    <path d="M19 14 L17 12" stroke="#ffffff" stroke-width="0.8" stroke-linecap="round"/>
    <path d="M13 18 L15 20" stroke="#ffffff" stroke-width="0.8" stroke-linecap="round"/>
    <path d="M19 18 L17 20" stroke="#ffffff" stroke-width="0.8" stroke-linecap="round"/>
    <path d="M16 8.8 L16 10.5" stroke="#ffffff" stroke-width="0.8" stroke-linecap="round"/>
    <path d="M16 21.5 L16 23.2" stroke="#ffffff" stroke-width="0.8" stroke-linecap="round"/>
  </g>
  
  <!-- Marketing arrow -->
  <path d="M8 26 L24 26 L20 22 M24 26 L20 30" stroke="#ffffff" stroke-width="1.5" stroke-linecap="round" stroke-linejoin="round"/>
</svg> 